<?xml version="1.0" standalone="no"?>
<!DOCTYPE svg PUBLIC "-//W3C//DTD SVG 20010904//EN"
 "http://www.w3.org/TR/2001/REC-SVG-20010904/DTD/svg10.dtd">
<svg version="1.0" xmlns="http://www.w3.org/2000/svg"
 width="600.000000pt" height="35.000000pt" viewBox="0 0 440.000000 76.000000"
 preserveAspectRatio="xMidYMid meet">

<g transform="translate(0.000000,76.000000) scale(0.100000,-0.100000)"
fill="#000000" stroke="none">
<path d="M20 740 c-19 -19 -20 -33 -20 -360 0 -327 1 -341 20 -360 20 -20 33
-20 2180 -20 2147 0 2160 0 2180 20 19 19 20 33 20 360 0 327 -1 341 -20 360
-20 20 -33 20 -2180 20 -2147 0 -2160 0 -2180 -20z m820 -212 c0 -14 -30 -48
-42 -48 -13 0 -9 22 9 42 18 21 33 23 33 6z m468 -41 c2 -10 -3 -17 -12 -17
-18 0 -29 16 -21 31 9 14 29 6 33 -14z m1200 0 c2 -10 -3 -17 -12 -17 -18 0
-29 16 -21 31 9 14 29 6 33 -14z m-1319 2 c38 -13 62 -49 33 -49 -10 0 -23 5
-29 11 -6 6 -23 9 -39 7 -21 -2 -29 -8 -29 -23 0 -14 11 -22 44 -32 55 -16 71
-29 71 -61 0 -41 -27 -62 -78 -62 -46 0 -82 20 -82 47 0 18 25 17 40 -3 20
-23 74 -15 78 13 3 18 -4 24 -40 33 -49 13 -78 35 -78 59 0 26 28 59 53 64 12
2 22 5 23 6 1 0 15 -4 33 -10z m1511 -31 c0 -33 3 -39 12 -30 15 15 61 15 76
0 7 -7 12 -40 12 -80 0 -54 -3 -68 -15 -68 -11 0 -15 12 -15 49 0 64 -7 81
-35 81 -28 0 -35 -17 -35 -81 0 -42 -3 -49 -20 -49 -19 0 -20 7 -20 110 0 103
1 110 20 110 17 0 20 -7 20 -42z m840 -68 c0 -103 -1 -110 -20 -110 -19 0 -20
7 -20 110 0 103 1 110 20 110 19 0 20 -7 20 -110z m-479 -5 c34 -97 35 -105
18 -105 -12 0 -23 10 -29 25 -8 21 -16 25 -50 25 -34 0 -41 -4 -46 -25 -4 -16
-13 -25 -25 -25 -25 0 -24 1 11 101 17 46 33 90 35 97 2 6 15 12 27 12 20 0
28 -13 59 -105z m-2197 82 c15 -11 16 -16 5 -41 -11 -23 -10 -32 6 -62 18 -34
18 -35 -2 -61 -17 -24 -26 -27 -82 -28 -58 -1 -64 1 -83 28 -28 40 -35 109
-14 142 14 22 23 25 72 24 30 -1 58 1 61 5 9 9 17 8 37 -7z m1736 -7 c0 -11 7
-20 15 -20 8 0 15 -7 15 -15 0 -8 -7 -15 -15 -15 -11 0 -15 -12 -15 -50 0 -38
4 -50 15 -50 8 0 15 -7 15 -15 0 -18 -41 -20 -58 -3 -7 7 -12 36 -12 65 0 40
-4 53 -15 53 -8 0 -15 7 -15 15 0 8 7 15 15 15 8 0 15 9 15 20 0 13 7 20 20
20 13 0 20 -7 20 -20z m-1290 -100 c0 -73 -2 -80 -20 -80 -18 0 -20 7 -20 80
0 73 2 80 20 80 18 0 20 -7 20 -80z m138 68 c9 -9 12 -9 12 0 0 7 9 12 20 12
18 0 20 -7 20 -83 0 -92 -13 -121 -56 -130 -33 -6 -80 9 -88 29 -7 17 17 18
44 2 26 -16 54 0 58 33 3 19 1 22 -9 12 -19 -19 -64 -16 -83 6 -10 11 -18 36
-18 56 0 20 8 45 18 56 19 21 64 25 82 7z m122 0 c0 -9 3 -9 12 0 7 7 24 12
39 12 40 0 59 -33 59 -102 0 -51 -2 -58 -20 -58 -16 0 -19 8 -22 62 -3 53 -6
63 -22 66 -28 6 -46 -25 -46 -80 0 -36 -4 -48 -15 -48 -12 0 -15 16 -15 80 0
64 3 80 15 80 8 0 15 -5 15 -12z m250 -37 c0 -64 7 -81 35 -81 28 0 35 17 35
81 0 42 3 49 20 49 18 0 20 -7 20 -80 0 -73 -2 -80 -20 -80 -11 0 -20 5 -20
12 0 9 -3 9 -12 0 -15 -15 -61 -15 -76 0 -7 7 -12 40 -12 80 0 54 3 68 15 68
11 0 15 -12 15 -49z m180 40 c0 -5 13 -4 29 2 61 23 101 -22 87 -99 -9 -44
-43 -63 -87 -47 -29 11 -29 11 -29 -23 0 -24 -5 -34 -15 -34 -12 0 -15 18 -15
105 0 87 3 105 15 105 8 0 15 -4 15 -9z m259 -28 c5 -21 11 -47 14 -58 5 -24
10 -13 27 53 8 30 16 42 29 42 14 0 21 -13 30 -56 14 -63 26 -59 37 14 5 32
11 42 25 42 22 0 23 -6 9 -46 -5 -16 -14 -48 -20 -71 -8 -32 -16 -43 -30 -43
-14 0 -23 14 -36 58 l-17 57 -16 -58 c-12 -48 -19 -57 -35 -55 -14 2 -24 19
-38 68 -22 79 -22 90 -3 90 8 0 18 -16 24 -37z m251 -43 c0 -73 -2 -80 -20
-80 -18 0 -20 7 -20 80 0 73 2 80 20 80 18 0 20 -7 20 -80z m650 68 c0 -9 3
-9 12 0 18 18 63 14 83 -8 23 -25 22 -95 -1 -121 -19 -21 -64 -25 -82 -7 -9 9
-12 4 -12 -25 0 -30 -4 -37 -20 -37 -19 0 -20 7 -20 105 0 98 1 105 20 105 11
0 20 -5 20 -12z m190 0 c0 -9 3 -9 12 0 18 18 63 14 83 -8 23 -25 22 -95 -1
-121 -19 -21 -64 -25 -82 -7 -9 9 -12 4 -12 -25 0 -30 -4 -37 -20 -37 -19 0
-20 7 -20 105 0 98 1 105 20 105 11 0 20 -5 20 -12z m340 -8 c11 -11 20 -31
20 -45 0 -24 -3 -25 -55 -25 -56 0 -67 -8 -40 -30 9 -8 29 -9 57 -5 l43 7 -19
-21 c-13 -14 -31 -21 -56 -21 -48 0 -73 27 -73 80 0 25 7 48 18 60 24 26 79
26 105 0z"/>
<path d="M2998 444 c-4 -5 -9 -26 -13 -47 -7 -35 -6 -37 19 -37 14 0 26 1 26
3 -1 20 -28 88 -32 81z"/>
<path d="M1388 384 c-9 -18 -9 -30 -1 -42 22 -36 73 -21 73 22 0 48 -53 63
-72 20z"/>
<path d="M2010 385 c-12 -32 3 -75 28 -75 25 0 42 20 42 50 0 51 -53 70 -70
25z"/>
<path d="M3172 398 c-7 -7 -12 -24 -12 -38 0 -51 52 -69 72 -25 22 49 -25 98
-60 63z"/>
<path d="M3362 398 c-7 -7 -12 -24 -12 -38 0 -51 52 -69 72 -25 22 49 -25 98
-60 63z"/>
<path d="M3610 395 c-11 -13 -8 -15 25 -15 25 0 35 4 33 13 -7 18 -43 20 -58
2z"/>
</g>
</svg>
